<svg width="25" height="25" viewBox="0 0 25 25" fill="none" xmlns="http://www.w3.org/2000/svg">
<path opacity="0.25" fill-rule="evenodd" clip-rule="evenodd" d="M12.5 24.0433C19.1274 24.0433 24.5 18.773 24.5 12.2717C24.5 5.77036 19.1274 0.5 12.5 0.5C5.87258 0.5 0.5 5.77036 0.5 12.2717C0.5 18.773 5.87258 24.0433 12.5 24.0433Z" fill="white" fill-opacity="0.01" stroke="#121212"/>
<path fill-rule="evenodd" clip-rule="evenodd" d="M12.8428 14.1433C13.979 14.1433 14.9 13.2223 14.9 12.0861C14.9 10.95 13.979 10.029 12.8428 10.029C11.7067 10.029 10.7857 10.95 10.7857 12.0861C10.7857 13.2223 11.7067 14.1433 12.8428 14.1433ZM12.8428 13.4576C13.6003 13.4576 14.2143 12.8435 14.2143 12.0861C14.2143 11.3287 13.6003 10.7147 12.8428 10.7147C12.0854 10.7147 11.4714 11.3287 11.4714 12.0861C11.4714 12.8435 12.0854 13.4576 12.8428 13.4576Z" fill="#121212"/>
<path d="M14.9 9.68616C14.7106 9.68616 14.5571 9.83966 14.5571 10.029C14.5571 10.2184 14.7106 10.3719 14.9 10.3719C15.0893 10.3719 15.2428 10.2184 15.2428 10.029C15.2428 9.83966 15.0893 9.68616 14.9 9.68616Z" fill="#121212"/>
<path fill-rule="evenodd" clip-rule="evenodd" d="M9.29563 9.43795C9.07141 9.878 9.07141 10.4541 9.07141 11.6062V12.5662C9.07141 13.7183 9.07141 14.2943 9.29563 14.7344C9.49285 15.1214 9.80755 15.4361 10.1946 15.6334C10.6347 15.8576 11.2107 15.8576 12.3628 15.8576H13.3228C14.4749 15.8576 15.051 15.8576 15.491 15.6334C15.8781 15.4361 16.1928 15.1214 16.39 14.7344C16.6143 14.2943 16.6143 13.7183 16.6143 12.5662V11.6062C16.6143 10.4541 16.6143 9.878 16.39 9.43795C16.1928 9.05087 15.8781 8.73617 15.491 8.53894C15.051 8.31473 14.4749 8.31473 13.3228 8.31473H12.3628C11.2107 8.31473 10.6347 8.31473 10.1946 8.53894C9.80755 8.73617 9.49285 9.05087 9.29563 9.43795ZM13.3228 9.00044H12.3628C11.7755 9.00044 11.3762 9.00098 11.0676 9.02619C10.7669 9.05075 10.6132 9.09527 10.5059 9.14992C10.2479 9.2814 10.0381 9.4912 9.9066 9.74926C9.85196 9.8565 9.80744 10.0102 9.78287 10.3109C9.75766 10.6195 9.75713 11.0188 9.75713 11.6062V12.5662C9.75713 13.1535 9.75766 13.5528 9.78287 13.8614C9.80744 14.1621 9.85196 14.3158 9.9066 14.4231C10.0381 14.6811 10.2479 14.8909 10.5059 15.0224C10.6132 15.077 10.7669 15.1216 11.0676 15.1461C11.3762 15.1713 11.7755 15.1719 12.3628 15.1719H13.3228C13.9102 15.1719 14.3095 15.1713 14.6181 15.1461C14.9188 15.1216 15.0725 15.077 15.1798 15.0224C15.4378 14.8909 15.6476 14.6811 15.7791 14.4231C15.8337 14.3158 15.8783 14.1621 15.9028 13.8614C15.928 13.5528 15.9286 13.1535 15.9286 12.5662V11.6062C15.9286 11.0188 15.928 10.6195 15.9028 10.3109C15.8783 10.0102 15.8337 9.8565 15.7791 9.74926C15.6476 9.4912 15.4378 9.2814 15.1798 9.14992C15.0725 9.09527 14.9188 9.05075 14.6181 9.02619C14.3095 9.00098 13.9102 9.00044 13.3228 9.00044Z" fill="#121212"/>
</svg>
