<svg width="25" height="25" viewBox="0 0 25 25" fill="none" xmlns="http://www.w3.org/2000/svg">
<path opacity="0.25" fill-rule="evenodd" clip-rule="evenodd" d="M12.5 24.0433C19.1274 24.0433 24.5 18.773 24.5 12.2717C24.5 5.77036 19.1274 0.5 12.5 0.5C5.87258 0.5 0.5 5.77036 0.5 12.2717C0.5 18.773 5.87258 24.0433 12.5 24.0433Z" fill="white" fill-opacity="0.01" stroke="#121212"/>
<path fill-rule="evenodd" clip-rule="evenodd" d="M12.8428 14.1433C13.979 14.1433 14.9 13.2223 14.9 12.0862C14.9 10.9501 13.979 10.0291 12.8428 10.0291C11.7067 10.0291 10.7857 10.9501 10.7857 12.0862C10.7857 13.2223 11.7067 14.1433 12.8428 14.1433ZM12.8428 13.4576C13.6003 13.4576 14.2143 12.8436 14.2143 12.0862C14.2143 11.3288 13.6003 10.7148 12.8428 10.7148C12.0854 10.7148 11.4714 11.3288 11.4714 12.0862C11.4714 12.8436 12.0854 13.4576 12.8428 13.4576Z" fill="#121212"/>
<path d="M14.9 9.68628C14.7106 9.68628 14.5571 9.83978 14.5571 10.0291C14.5571 10.2185 14.7106 10.372 14.9 10.372C15.0893 10.372 15.2428 10.2185 15.2428 10.0291C15.2428 9.83978 15.0893 9.68628 14.9 9.68628Z" fill="#121212"/>
<path fill-rule="evenodd" clip-rule="evenodd" d="M9.29563 9.43792C9.07141 9.87796 9.07141 10.454 9.07141 11.6061V12.5661C9.07141 13.7182 9.07141 14.2943 9.29563 14.7343C9.49285 15.1214 9.80755 15.4361 10.1946 15.6333C10.6347 15.8576 11.2107 15.8576 12.3628 15.8576H13.3228C14.4749 15.8576 15.051 15.8576 15.491 15.6333C15.8781 15.4361 16.1928 15.1214 16.39 14.7343C16.6143 14.2943 16.6143 13.7182 16.6143 12.5661V11.6061C16.6143 10.454 16.6143 9.87796 16.39 9.43792C16.1928 9.05084 15.8781 8.73614 15.491 8.53891C15.051 8.3147 14.4749 8.3147 13.3228 8.3147H12.3628C11.2107 8.3147 10.6347 8.3147 10.1946 8.53891C9.80755 8.73614 9.49285 9.05084 9.29563 9.43792ZM13.3228 9.00041H12.3628C11.7755 9.00041 11.3762 9.00095 11.0676 9.02616C10.7669 9.05072 10.6132 9.09524 10.5059 9.14989C10.2479 9.28137 10.0381 9.49117 9.9066 9.74923C9.85196 9.85647 9.80744 10.0102 9.78287 10.3108C9.75766 10.6195 9.75713 11.0188 9.75713 11.6061V12.5661C9.75713 13.1535 9.75766 13.5528 9.78287 13.8614C9.80744 14.1621 9.85196 14.3158 9.9066 14.423C10.0381 14.6811 10.2479 14.8909 10.5059 15.0224C10.6132 15.077 10.7669 15.1215 11.0676 15.1461C11.3762 15.1713 11.7755 15.1718 12.3628 15.1718H13.3228C13.9102 15.1718 14.3095 15.1713 14.6181 15.1461C14.9188 15.1215 15.0725 15.077 15.1798 15.0224C15.4378 14.8909 15.6476 14.6811 15.7791 14.423C15.8337 14.3158 15.8783 14.1621 15.9028 13.8614C15.928 13.5528 15.9286 13.1535 15.9286 12.5661V11.6061C15.9286 11.0188 15.928 10.6195 15.9028 10.3108C15.8783 10.0102 15.8337 9.85647 15.7791 9.74923C15.6476 9.49117 15.4378 9.28137 15.1798 9.14989C15.0725 9.09524 14.9188 9.05072 14.6181 9.02616C14.3095 9.00095 13.9102 9.00041 13.3228 9.00041Z" fill="#121212"/>
</svg>
