<svg width="25" height="25" viewBox="0 0 25 25" fill="none" xmlns="http://www.w3.org/2000/svg">
<path opacity="0.25" fill-rule="evenodd" clip-rule="evenodd" d="M12.5 24.0433C19.1274 24.0433 24.5 18.773 24.5 12.2717C24.5 5.77036 19.1274 0.5 12.5 0.5C5.87258 0.5 0.5 5.77036 0.5 12.2717C0.5 18.773 5.87258 24.0433 12.5 24.0433Z" stroke="#121212"/>
<path d="M9.74593 9.89455C10.3078 9.89455 10.7632 9.44776 10.7632 8.89662C10.7632 8.34547 10.3078 7.89868 9.74593 7.89868C9.18409 7.89868 8.72864 8.34547 8.72864 8.89662C8.72864 9.44776 9.18409 9.89455 9.74593 9.89455Z" fill="#121212"/>
<path d="M10.5937 10.5613H8.89819C8.8046 10.5613 8.72864 10.6358 8.72864 10.7276V15.7173C8.72864 15.8091 8.8046 15.8836 8.89819 15.8836H10.5937C10.6873 15.8836 10.7632 15.8091 10.7632 15.7173V10.7276C10.7632 10.6358 10.6873 10.5613 10.5937 10.5613Z" fill="#121212"/>
<path d="M15.6465 10.2844C14.9218 10.0409 14.0154 10.2548 13.4718 10.6383C13.4532 10.5668 13.3867 10.5136 13.3077 10.5136H11.6122C11.5186 10.5136 11.4427 10.5881 11.4427 10.6799V15.6696C11.4427 15.7614 11.5186 15.8359 11.6122 15.8359H13.3077C13.4013 15.8359 13.4773 15.7614 13.4773 15.6696V12.0837C13.7513 11.8521 14.1043 11.7783 14.3932 11.8987C14.6733 12.0148 14.8337 12.2982 14.8337 12.6758V15.6696C14.8337 15.7614 14.9096 15.8359 15.0032 15.8359H16.6987C16.7923 15.8359 16.8682 15.7614 16.8682 15.6696V12.3408C16.8489 10.974 16.1934 10.468 15.6465 10.2844Z" fill="#121212"/>
</svg>
