<svg width="138" height="42" viewBox="0 0 138 42" fill="none" xmlns="http://www.w3.org/2000/svg">
<g clip-path="url(#clip0_27_8635)">
<path d="M41.876 23.2803C40.7394 33.8056 31.8274 42 21 42C9.40202 42 0 32.598 0 21C0 20.959 0.00074138 20.9179 0.000976562 20.877L11.2021 26.3535C11.2568 28.0452 12.6447 29.4002 14.3496 29.4004C16.0893 29.4004 17.5 27.9897 17.5 26.25C17.5 26.1482 17.4938 26.0476 17.4844 25.9482L26.5996 18.4287C27.177 19.1429 28.0599 19.5996 29.0498 19.5996C30.191 19.5996 31.1867 18.9907 31.7393 18.082L41.876 23.2803ZM21 0C32.598 0 42 9.40202 42 21C42 21.0319 41.9982 21.0638 41.998 21.0957L32.1748 16.0586C31.982 14.5037 30.6569 13.2998 29.0498 13.2998C27.3228 13.2999 25.9207 14.6899 25.9004 16.4121L16.6191 24.0693C16.046 23.4731 15.242 23.0996 14.3496 23.0996C13.2955 23.0997 12.3647 23.6198 11.793 24.415L0.124023 18.71C1.26504 8.18927 10.1759 0 21 0Z" fill="#A4F5A6"/>
<path d="M54.9902 28V16.3398H50.791V13.9082H62.1289V16.3398H57.9395V28H54.9902ZM63.0664 28V17.3164H65.918V19.0254H66.0645C66.2337 18.4264 66.5462 17.9609 67.002 17.6289C67.4577 17.2969 68.0241 17.1309 68.7012 17.1309C68.8835 17.1309 69.0625 17.1439 69.2383 17.1699C69.4141 17.196 69.5703 17.2285 69.707 17.2676V19.7578C69.5182 19.7057 69.3164 19.6667 69.1016 19.6406C68.8932 19.6081 68.6784 19.5918 68.457 19.5918C67.9362 19.5918 67.4837 19.6895 67.0996 19.8848C66.722 20.0801 66.429 20.36 66.2207 20.7246C66.0189 21.0827 65.918 21.5156 65.918 22.0234V28H63.0664ZM74.9805 28.2246C74.1862 28.2246 73.5189 28.0684 72.9785 27.7559C72.4382 27.4434 72.028 26.9876 71.748 26.3887C71.4746 25.7897 71.3379 25.0671 71.3379 24.2207V17.3164H74.1895V23.5859C74.1895 24.3281 74.3424 24.8945 74.6484 25.2852C74.9544 25.6693 75.4427 25.8613 76.1133 25.8613C76.4583 25.8613 76.7643 25.806 77.0312 25.6953C77.2982 25.5781 77.5228 25.4154 77.7051 25.207C77.8874 24.9987 78.0241 24.7513 78.1152 24.4648C78.2129 24.1719 78.2617 23.8464 78.2617 23.4883V17.3164H81.1133V28H78.2617V26.3301H78.1152C77.946 26.7207 77.7148 27.0592 77.4219 27.3457C77.1289 27.6257 76.7773 27.8438 76.3672 28C75.957 28.1497 75.4948 28.2246 74.9805 28.2246ZM90.0586 28.332C88.6914 28.332 87.5098 28.0358 86.5137 27.4434C85.5241 26.8444 84.7591 25.9948 84.2188 24.8945C83.6849 23.7943 83.418 22.4824 83.418 20.959V20.9395C83.418 19.416 83.6849 18.1042 84.2188 17.0039C84.7591 15.9036 85.5241 15.0573 86.5137 14.4648C87.5098 13.8724 88.6882 13.5762 90.0488 13.5762C91.1751 13.5762 92.181 13.7975 93.0664 14.2402C93.9583 14.6764 94.6777 15.2786 95.2246 16.0469C95.7715 16.8151 96.0872 17.694 96.1719 18.6836L96.1816 18.8008H93.3105L93.291 18.7129C93.1934 18.1855 92.9948 17.7266 92.6953 17.3359C92.4023 16.9388 92.0312 16.6296 91.582 16.4082C91.1328 16.1868 90.6217 16.0762 90.0488 16.0762C89.3132 16.0762 88.6719 16.2747 88.125 16.6719C87.5846 17.0625 87.168 17.6224 86.875 18.3516C86.582 19.0742 86.4355 19.9368 86.4355 20.9395V20.959C86.4355 21.9551 86.582 22.821 86.875 23.5566C87.168 24.2858 87.5846 24.849 88.125 25.2461C88.6719 25.6367 89.3164 25.832 90.0586 25.832C90.625 25.832 91.1328 25.7311 91.582 25.5293C92.0312 25.321 92.4023 25.028 92.6953 24.6504C92.9883 24.2728 93.1901 23.8268 93.3008 23.3125L93.3203 23.2246H96.1914L96.1816 23.332C96.084 24.3216 95.7617 25.1908 95.2148 25.9395C94.6745 26.6882 93.9616 27.2741 93.0762 27.6973C92.1973 28.1204 91.1914 28.332 90.0586 28.332ZM99.8242 31.7109C99.6289 31.7109 99.4336 31.7044 99.2383 31.6914C99.043 31.6849 98.8607 31.6719 98.6914 31.6523V29.5234C98.7891 29.5299 98.9062 29.5365 99.043 29.543C99.1862 29.556 99.3327 29.5625 99.4824 29.5625C99.9707 29.5625 100.358 29.4681 100.645 29.2793C100.931 29.0905 101.126 28.7975 101.23 28.4004L101.338 28L97.5781 17.3164H100.713L103.232 26.4766L102.646 25.4707H103.418L102.852 26.4766L105.371 17.3164H108.379L104.736 28.0391C104.43 28.957 104.059 29.6829 103.623 30.2168C103.187 30.7507 102.66 31.1315 102.041 31.3594C101.423 31.5938 100.684 31.7109 99.8242 31.7109ZM114.453 28.2246C113.346 28.2246 112.402 28.0065 111.621 27.5703C110.84 27.1276 110.241 26.4896 109.824 25.6562C109.414 24.8229 109.209 23.8203 109.209 22.6484V22.6289C109.209 21.4635 109.414 20.4674 109.824 19.6406C110.241 18.8138 110.84 18.1823 111.621 17.7461C112.402 17.3099 113.343 17.0918 114.443 17.0918C115.394 17.0918 116.211 17.2578 116.895 17.5898C117.585 17.9219 118.128 18.3841 118.525 18.9766C118.923 19.569 119.157 20.2624 119.229 21.0566V21.0957H116.582L116.572 21.0566C116.481 20.5423 116.257 20.1257 115.898 19.8066C115.547 19.4876 115.068 19.3281 114.463 19.3281C113.962 19.3281 113.535 19.4583 113.184 19.7188C112.839 19.9727 112.572 20.347 112.383 20.8418C112.201 21.3301 112.109 21.9258 112.109 22.6289V22.6484C112.109 23.3646 112.201 23.9733 112.383 24.4746C112.572 24.9694 112.842 25.347 113.193 25.6074C113.545 25.8613 113.968 25.9883 114.463 25.9883C115.049 25.9883 115.514 25.8451 115.859 25.5586C116.211 25.2721 116.445 24.8587 116.562 24.3184L116.582 24.2793L119.229 24.2695L119.219 24.3379C119.134 25.1126 118.893 25.793 118.496 26.3789C118.099 26.9583 117.559 27.4108 116.875 27.7363C116.198 28.0618 115.391 28.2246 114.453 28.2246ZM121.338 28V13.3223H124.189V28H121.338ZM131.631 28.2246C130.544 28.2246 129.609 28 128.828 27.5508C128.047 27.1016 127.445 26.4635 127.021 25.6367C126.605 24.8034 126.396 23.8171 126.396 22.6777V22.668C126.396 21.5352 126.605 20.5521 127.021 19.7188C127.445 18.8789 128.037 18.2311 128.799 17.7754C129.567 17.3197 130.472 17.0918 131.514 17.0918C132.555 17.0918 133.454 17.3132 134.209 17.7559C134.964 18.1986 135.547 18.8236 135.957 19.6309C136.367 20.4316 136.572 21.3724 136.572 22.4531V23.332H127.812V21.5449H135.215L133.867 23.2344V22.1016C133.867 21.4701 133.77 20.9395 133.574 20.5098C133.379 20.0801 133.109 19.7578 132.764 19.543C132.419 19.3281 132.018 19.2207 131.562 19.2207C131.107 19.2207 130.703 19.3314 130.352 19.5527C130 19.7741 129.723 20.0996 129.521 20.5293C129.32 20.959 129.219 21.4831 129.219 22.1016V23.2441C129.219 23.8431 129.316 24.3542 129.512 24.7773C129.714 25.2005 130 25.526 130.371 25.7539C130.742 25.9818 131.182 26.0957 131.689 26.0957C132.1 26.0957 132.448 26.0339 132.734 25.9102C133.027 25.7865 133.265 25.64 133.447 25.4707C133.63 25.2949 133.753 25.1322 133.818 24.9824L133.838 24.9238H136.484L136.465 25.0312C136.38 25.3763 136.227 25.7376 136.006 26.1152C135.785 26.4863 135.479 26.8314 135.088 27.1504C134.704 27.4694 134.225 27.7298 133.652 27.9316C133.079 28.127 132.406 28.2246 131.631 28.2246Z" fill="#121212"/>
</g>
<defs>
<clipPath id="clip0_27_8635">
<rect width="138" height="42" fill="white"/>
</clipPath>
</defs>
</svg>
