<svg width="25" height="25" viewBox="0 0 25 25" fill="none" xmlns="http://www.w3.org/2000/svg">
<path opacity="0.25" fill-rule="evenodd" clip-rule="evenodd" d="M12.5 24.0433C19.1274 24.0433 24.5 18.773 24.5 12.2717C24.5 5.77036 19.1274 0.5 12.5 0.5C5.87258 0.5 0.5 5.77036 0.5 12.2717C0.5 18.773 5.87258 24.0433 12.5 24.0433Z" stroke="#121212"/>
<g clip-path="url(#clip0_19_791)">
<path d="M13.5083 11.338L16.1122 8.28931H15.495L13.2347 10.9363L11.4286 8.28931H9.3457L12.0766 12.2925L9.3457 15.4893H9.96285L12.3502 12.6936L14.2576 15.4893H16.3405L13.5083 11.338ZM12.6634 12.3275L12.3867 11.9289L10.185 8.75731H11.1328L12.9092 11.3169L13.1859 11.7155L15.4955 15.0429H14.5477L12.6634 12.3275Z" fill="#121212"/>
</g>
<defs>
<clipPath id="clip0_19_791">
<rect width="8.22857" height="8.22857" fill="white" transform="translate(8.72858 7.7749)"/>
</clipPath>
</defs>
</svg>
